<?xml version="1.0" encoding="utf-8"?>
<!-- Generator: Adobe Illustrator 16.0.0, SVG Export Plug-In . SVG Version: 6.00 Build 0)  -->
<!DOCTYPE svg PUBLIC "-//W3C//DTD SVG 1.1//EN" "http://www.w3.org/Graphics/SVG/1.1/DTD/svg11.dtd">
<svg version="1.1" id="Layer_1" xmlns="http://www.w3.org/2000/svg" xmlns:xlink="http://www.w3.org/1999/xlink" x="0px" y="0px"
	 width="39.625px" height="39.312px" viewBox="0 0 39.625 39.312" enable-background="new 0 0 39.625 39.312" xml:space="preserve">
<g>
	<path fill="none" stroke="#FFFFFF" stroke-width="1.5" stroke-miterlimit="10" d="M33.893,19.654
		c0,7.776-6.306,14.081-14.08,14.081c-7.779,0-14.08-6.305-14.08-14.081c0-7.775,6.301-14.08,14.08-14.08
		C27.587,5.574,33.893,11.879,33.893,19.654z"/>
	<polyline fill="none" stroke="#FFFFFF" stroke-width="1.5" stroke-linecap="round" stroke-miterlimit="10" points="24.821,20.295 
		19.173,20.295 19.173,11.752 	"/>
	<path fill="none" stroke="#FFFFFF" stroke-width="1.5" stroke-miterlimit="10" d="M38.373,35.017c0,1.76-1.439,3.2-3.2,3.2H4.452
		c-1.76,0-3.2-1.44-3.2-3.2V4.296c0-1.76,1.44-3.2,3.2-3.2h30.721c1.761,0,3.2,1.44,3.2,3.2V35.017z"/>
</g>
</svg>
